<svg width="38" height="38" viewBox="0 0 38 38" fill="none" xmlns="http://www.w3.org/2000/svg">
<ellipse cx="19" cy="19" rx="19" ry="19" transform="matrix(0 1 1 0 0 0)" fill="white"/>
<path d="M19.6508 20.2834C19.5655 20.3693 19.4642 20.4375 19.3525 20.484C19.2407 20.5306 19.1209 20.5545 18.9999 20.5545C18.8789 20.5545 18.7591 20.5306 18.6474 20.484C18.5357 20.4375 18.4343 20.3693 18.3491 20.2834L14.1507 16.0759C14.0655 15.99 13.9641 15.9218 13.8524 15.8752C13.7407 15.8287 13.6209 15.8047 13.4999 15.8047C13.3789 15.8047 13.2591 15.8287 13.1474 15.8752C13.0357 15.9218 12.9343 15.99 12.8491 16.0759C12.6783 16.2476 12.5825 16.48 12.5825 16.7221C12.5825 16.9643 12.6783 17.1966 12.8491 17.3684L17.0566 21.5759C17.5722 22.0909 18.2712 22.3801 18.9999 22.3801C19.7287 22.3801 20.4276 22.0909 20.9433 21.5759L25.1508 17.3684C25.3201 17.1976 25.4156 16.9672 25.4166 16.7267C25.4173 16.6061 25.3942 16.4865 25.3486 16.3748C25.3029 16.2631 25.2357 16.1615 25.1508 16.0759C25.0655 15.99 24.9642 15.9218 24.8525 15.8752C24.7408 15.8287 24.6209 15.8047 24.4999 15.8047C24.3789 15.8047 24.2591 15.8287 24.1474 15.8752C24.0357 15.9218 23.9343 15.99 23.8491 16.0759L19.6508 20.2834Z" fill="#FD9222"/>
</svg>
