<svg width="62" height="62" viewBox="0 0 62 62" fill="none" xmlns="http://www.w3.org/2000/svg">
<path d="M31.0001 17.6667C23.6667 17.6667 17.6667 23.6667 17.6667 31.0001C17.6667 38.3334 23.6667 44.3334 31.0001 44.3334C38.3334 44.3334 44.3334 38.3334 44.3334 31.0001C44.3334 23.6667 38.3334 17.6667 31.0001 17.6667ZM31.0001 41.6667C25.1334 41.6667 20.3334 36.8667 20.3334 31.0001C20.3334 25.1334 25.1334 20.3334 31.0001 20.3334C36.8667 20.3334 41.6667 25.1334 41.6667 31.0001C41.6667 36.8667 36.8667 41.6667 31.0001 41.6667Z" fill="#FD9222"/>
<path d="M32.7335 29.6667H29.2668C28.6001 29.6667 28.0668 29.1333 28.0668 28.4667C28.0668 27.8 28.6001 27.2667 29.2668 27.2667H34.2001C35.0001 27.2667 35.5335 26.7333 35.5335 25.9333C35.5335 25.1333 35.0001 24.6 34.2001 24.6H32.3335V23.4C32.3335 22.6 31.8001 22.0667 31.0001 22.0667C30.2001 22.0667 29.6668 22.6 29.6668 23.4V24.6H29.2668C27.1335 24.6 25.4001 26.3333 25.4001 28.4667C25.4001 30.6 27.1335 32.3333 29.2668 32.3333H32.6001C33.2668 32.3333 33.8001 32.8666 33.8001 33.5333C33.8001 34.2 33.2668 34.7333 32.6001 34.7333H27.6668C26.8668 34.7333 26.3335 35.2667 26.3335 36.0667C26.3335 36.8667 26.8668 37.4 27.6668 37.4H29.6668V38.6C29.6668 39.4 30.2001 39.9333 31.0001 39.9333C31.8001 39.9333 32.3335 39.4 32.3335 38.6V37.4H32.7335C34.8668 37.4 36.6001 35.6667 36.6001 33.5333C36.6001 31.4 34.8668 29.6667 32.7335 29.6667Z" fill="#FD9222"/>
<rect x="0.5" y="0.5" width="61" height="61" rx="30.5" stroke="white" stroke-opacity="0.5"/>
</svg>
